<svg xmlns="http://www.w3.org/2000/svg" xmlns:xlink="http://www.w3.org/1999/xlink" width="130" height="43" viewBox="0 0 130 43"><defs><path id="dkkka" d="M771 623a7 7 0 0 1 7-7h116a7 7 0 0 1 7 7v29a7 7 0 0 1-7 7H778a7 7 0 0 1-7-7z"/><path id="dkkkb" d="M797.92 638.12c-.03-3.44 2.84-5.11 2.97-5.19a6.38 6.38 0 0 0-5.02-2.7c-2.1-.22-4.16 1.26-5.23 1.26-1.1 0-2.75-1.24-4.54-1.2a6.68 6.68 0 0 0-5.62 3.41c-2.43 4.19-.61 10.34 1.72 13.73 1.16 1.66 2.52 3.5 4.3 3.44 1.75-.07 2.4-1.1 4.5-1.1 2.08 0 2.7 1.1 4.51 1.06 1.87-.03 3.05-1.66 4.17-3.34a13.67 13.67 0 0 0 1.91-3.87 5.99 5.99 0 0 1-3.67-5.5z"/><path id="dkkkc" d="M794.49 628a6.07 6.07 0 0 0 1.4-4.36 6.24 6.24 0 0 0-4.03 2.08 5.78 5.78 0 0 0-1.44 4.2 5.16 5.16 0 0 0 4.07-1.92z"/><path id="dkkkd" d="M820.36 649.25h-2.25l-1.24-3.64h-4.28l-1.18 3.64h-2.19l4.25-12.39h2.62zm-3.86-5.17l-1.11-3.23c-.12-.33-.34-1.11-.67-2.34h-.04c-.13.53-.34 1.3-.63 2.34l-1.1 3.23z"/><path id="dkkke" d="M829.97 648.27a3.96 3.96 0 0 1-2.92 1.18c-1.25 0-2.15-.42-2.7-1.27h-.04v4.7h-2.11v-9.63c0-.95-.03-1.93-.08-2.94h1.86l.12 1.42h.04c.7-1.07 1.77-1.6 3.2-1.6 1.13 0 2.06.42 2.81 1.25a4.73 4.73 0 0 1 1.13 3.29c0 1.52-.44 2.72-1.31 3.6zm-1.47-5.68a2.21 2.21 0 0 0-1.84-.88c-.52 0-1 .16-1.42.49-.42.32-.7.75-.83 1.27-.06.25-.1.45-.1.61v1.49c0 .65.21 1.2.64 1.64.42.45.97.68 1.65.68.8 0 1.42-.3 1.86-.87.45-.57.67-1.33.67-2.28 0-.87-.21-1.58-.63-2.15z"/><path id="dkkkf" d="M840.9 648.27a3.95 3.95 0 0 1-2.9 1.18c-1.26 0-2.16-.42-2.7-1.27h-.05v4.7h-2.11v-9.63c0-.95-.03-1.93-.08-2.94h1.86l.12 1.42h.04c.7-1.07 1.77-1.6 3.2-1.6 1.13 0 2.06.42 2.82 1.25a4.74 4.74 0 0 1 1.12 3.29c0 1.52-.44 2.72-1.31 3.6zm-1.46-5.68a2.2 2.2 0 0 0-1.84-.88c-.52 0-1 .16-1.42.49-.42.32-.7.75-.83 1.27-.06.25-.1.45-.1.61v1.49c0 .65.21 1.2.64 1.64.42.45.97.68 1.65.68.8 0 1.42-.3 1.86-.87.44-.57.67-1.33.67-2.28 0-.87-.21-1.58-.63-2.15z"/><path id="dkkkg" d="M854.45 645.78c0 1.05-.39 1.9-1.17 2.57a5.41 5.41 0 0 1-3.6 1.08 6.61 6.61 0 0 1-3.41-.77l.49-1.65c.93.52 1.95.79 3.05.79.8 0 1.42-.17 1.87-.5.44-.35.66-.8.66-1.36 0-.5-.18-.93-.55-1.27a5.19 5.19 0 0 0-1.82-.96c-2.3-.8-3.46-2-3.46-3.55 0-1.02.4-1.85 1.21-2.5a5 5 0 0 1 3.23-.98c1.2 0 2.2.2 3 .59l-.53 1.62a5.47 5.47 0 0 0-2.53-.57c-.74 0-1.32.17-1.74.51a1.48 1.48 0 0 0 .08 2.33 7 7 0 0 0 1.92.96c1.13.43 1.97.93 2.5 1.5.54.58.8 1.3.8 2.16z"/><path id="dkkkh" d="M861.43 641.8h-2.33v4.34c0 1.1.41 1.66 1.24 1.66a4 4 0 0 0 .94-.1l.05 1.51c-.41.15-.96.22-1.64.22-.83 0-1.49-.24-1.96-.72-.47-.47-.7-1.28-.7-2.4v-4.5h-1.39v-1.5h1.39v-1.63l2.07-.59v2.22h2.33z"/><path id="dkkki" d="M870.7 648.09a4.62 4.62 0 0 1-3.5 1.36 4.4 4.4 0 0 1-3.33-1.3 4.58 4.58 0 0 1-1.24-3.3c0-1.38.43-2.51 1.28-3.4.86-.88 2-1.32 3.46-1.32 1.4 0 2.51.43 3.36 1.3a4.53 4.53 0 0 1 1.22 3.28c0 1.37-.42 2.5-1.26 3.38zm-1.51-5.44a2.11 2.11 0 0 0-1.9-1.07c-.85 0-1.5.36-1.94 1.07a3.9 3.9 0 0 0-.56 2.16c0 .82.18 1.53.56 2.12.46.7 1.1 1.06 1.92 1.06.8 0 1.44-.36 1.9-1.08.39-.6.58-1.32.58-2.14 0-.82-.18-1.53-.56-2.12z"/><path id="dkkkj" d="M878.82 642.06a3.9 3.9 0 0 0-.67-.06c-.74 0-1.32.27-1.72.8a2.84 2.84 0 0 0-.53 1.76v4.69h-2.11l.02-6.12c0-1.03-.03-1.97-.08-2.82h1.84l.08 1.71h.06c.22-.58.57-1.06 1.05-1.41.47-.32.98-.48 1.53-.48.2 0 .37.01.53.04z"/><path id="dkkkk" d="M888.2 645.26h-6.34c.02.89.33 1.56.92 2.03.53.41 1.22.62 2.07.62.94 0 1.8-.14 2.57-.42l.33 1.38c-.9.37-1.97.55-3.2.55-1.47 0-2.63-.4-3.47-1.22a4.36 4.36 0 0 1-1.26-3.28c0-1.35.4-2.47 1.18-3.37a4.16 4.16 0 0 1 3.32-1.43c1.37 0 2.41.48 3.11 1.43.56.76.84 1.7.84 2.81 0 .36-.02.66-.07.9zm-1.94-1.41c.01-.59-.13-1.1-.41-1.53-.37-.55-.93-.82-1.69-.82-.69 0-1.25.26-1.68.8-.35.43-.56.95-.62 1.55h4.4z"/><path id="dkkkl" d="M814.8 629.47c0 1.1-.34 1.92-1.04 2.48-.65.51-1.57.77-2.76.77-.6 0-1.1-.03-1.52-.08v-5.98c.55-.09 1.15-.13 1.79-.13 1.13 0 1.99.23 2.57.7.64.52.97 1.27.97 2.24zm-1.69-1.6c-.4-.38-.98-.57-1.75-.57-.33 0-.61.02-.84.06v4.55c.13.02.36.03.7.03.8 0 1.4-.2 1.84-.62.43-.42.65-1.02.65-1.82 0-.7-.2-1.25-.6-1.63z"/><path id="dkkkm" d="M820 632.1c-.43.44-1 .67-1.71.67-.69 0-1.23-.22-1.64-.64-.4-.43-.61-.97-.61-1.62 0-.68.2-1.24.63-1.67.42-.43.98-.65 1.7-.65.68 0 1.23.21 1.65.64.4.42.6.95.6 1.6 0 .68-.2 1.23-.62 1.67zm-.46-1.63c0-.4-.1-.75-.28-1.04a1.04 1.04 0 0 0-.93-.53c-.42 0-.74.18-.95.53-.19.29-.28.64-.28 1.06 0 .4.1.75.28 1.04.22.35.53.52.94.52.4 0 .7-.17.93-.53.2-.3.29-.65.29-1.05z"/><path id="dkkkn" d="M828.41 628.28l-1.46 4.39H826l-.6-1.9c-.16-.48-.29-.96-.38-1.43H825c-.1.49-.22.96-.38 1.42l-.64 1.9H823l-1.37-4.38h1.07l.53 2.09c.12.49.23.96.31 1.4h.02c.08-.36.2-.83.39-1.4l.66-2.09h.85l.63 2.05c.16.5.28.98.38 1.45h.03c.07-.46.17-.94.31-1.45l.57-2.05h1.02z"/><path id="dkkko" d="M833.8 632.66h-1.04v-2.51c0-.78-.32-1.16-.94-1.16-.31 0-.56.1-.76.31-.19.22-.28.47-.28.76v2.6h-1.04v-3.13c0-.39-.02-.8-.04-1.26h.91l.05.69h.03c.12-.22.3-.4.54-.53.28-.17.6-.25.94-.25.44 0 .8.13 1.09.4.36.32.54.8.54 1.45z"/><path id="dkkkp" d="M836.66 632.66h-1.04v-6.4h1.04z"/><path id="dkkkq" d="M842.16 632.1c-.43.44-1 .67-1.71.67-.69 0-1.23-.22-1.64-.64-.4-.43-.61-.97-.61-1.62 0-.68.2-1.24.63-1.67.42-.43.98-.65 1.7-.65.68 0 1.23.21 1.65.64.4.42.6.95.6 1.6 0 .68-.2 1.23-.62 1.67zm-.74-2.67a1.04 1.04 0 0 0-.93-.53c-.42 0-.74.18-.95.53-.19.29-.28.64-.28 1.06 0 .4.1.75.28 1.04.22.35.53.52.94.52.4 0 .7-.17.93-.53.2-.3.29-.65.29-1.05s-.1-.75-.28-1.04z"/><path id="dkkkr" d="M847.8 632.67h-.94l-.07-.5h-.03c-.32.4-.78.6-1.37.6-.44 0-.8-.14-1.06-.4a1.2 1.2 0 0 1-.37-.9c0-.53.24-.94.72-1.22a3.92 3.92 0 0 1 2.01-.42v-.08c0-.58-.32-.87-.97-.87-.46 0-.87.11-1.22.33l-.2-.64c.43-.25.96-.38 1.6-.38 1.22 0 1.83.6 1.83 1.82v1.61c0 .44.02.79.07 1.05zm-1.08-1.51v-.68c-1.15-.02-1.72.28-1.72.89 0 .23.06.4.2.51.13.12.3.17.5.17.23 0 .45-.06.64-.2a.83.83 0 0 0 .38-.7z"/><path id="dkkks" d="M852.78 632.66l-.05-.7h-.03c-.3.53-.8.8-1.5.8a1.8 1.8 0 0 1-1.4-.62 2.33 2.33 0 0 1-.56-1.62c0-.7.2-1.28.6-1.72.4-.41.88-.62 1.45-.62.63 0 1.06.2 1.31.6h.02v-2.52h1.04v5.22c0 .43.02.82.04 1.18zm-.16-2.58c0-.13 0-.23-.02-.3a1.1 1.1 0 0 0-.38-.6c-.2-.16-.43-.24-.7-.24-.38 0-.69.15-.9.44-.23.29-.34.65-.34 1.1 0 .44.1.8.32 1.06.22.3.53.44.9.44.35 0 .62-.12.83-.37.2-.22.3-.49.3-.8z"/><path id="dkkkt" d="M861.97 632.1c-.43.44-1 .67-1.71.67-.69 0-1.23-.22-1.64-.64-.4-.43-.61-.97-.61-1.62 0-.68.2-1.24.63-1.67.42-.43.98-.65 1.7-.65.68 0 1.23.21 1.65.64.4.42.6.95.6 1.6 0 .68-.2 1.23-.62 1.67zm-.74-2.67a1.04 1.04 0 0 0-.93-.53c-.42 0-.73.18-.95.53-.19.29-.28.64-.28 1.06 0 .4.1.75.28 1.04.22.35.53.52.94.52.4 0 .7-.17.93-.53.2-.3.29-.65.29-1.05s-.1-.75-.28-1.04z"/><path id="dkkku" d="M868.17 632.66h-1.03v-2.51c0-.78-.32-1.16-.95-1.16-.3 0-.55.1-.75.31-.19.22-.28.47-.28.76v2.6h-1.04v-3.13c0-.39-.02-.8-.04-1.26h.91l.05.69h.03c.12-.22.3-.4.54-.53.28-.17.6-.25.94-.25.44 0 .8.13 1.09.4.36.32.53.8.53 1.45z"/><path id="dkkkv" d="M875.17 629h-1.15v2.14c0 .54.2.8.6.8.2 0 .35 0 .47-.04l.03.74c-.2.07-.48.11-.81.11-.41 0-.73-.12-.96-.35-.23-.24-.35-.63-.35-1.18V629h-.68v-.73h.68v-.8l1.02-.29v1.1h1.14v.72z"/><path id="dkkkw" d="M880.67 632.66h-1.04v-2.5c0-.78-.31-1.17-.94-1.17-.48 0-.81.22-1 .68-.02.1-.04.21-.04.35v2.64h-1.04v-6.4h1.04v2.64h.02c.32-.48.8-.72 1.4-.72.43 0 .79.14 1.07.4.35.33.53.82.53 1.47z"/><path id="dkkkx" d="M886.3 630.7h-3.12c.01.44.16.77.45 1 .26.2.6.3 1.02.3.46 0 .88-.06 1.26-.2l.16.68c-.44.18-.96.27-1.56.27-.73 0-1.3-.2-1.71-.6-.41-.4-.62-.94-.62-1.61 0-.67.2-1.22.58-1.66.4-.47.94-.7 1.63-.7.67 0 1.18.23 1.53.7.28.38.41.84.41 1.38 0 .18 0 .33-.03.45zm-.96-.69c.01-.29-.06-.54-.2-.75-.18-.27-.45-.4-.82-.4a1 1 0 0 0-.83.4c-.17.2-.28.46-.31.75z"/></defs><g><g transform="translate(-771 -616)"><g opacity=".1"><use fill="#fff" xlink:href="#dkkka"/></g><g><g><g><g><g><use fill="#fff" xlink:href="#dkkkb"/></g><g><use fill="#fff" xlink:href="#dkkkc"/></g></g></g><g><g><use fill="#fff" xlink:href="#dkkkd"/></g><g><use fill="#fff" xlink:href="#dkkke"/></g><g><use fill="#fff" xlink:href="#dkkkf"/></g><g><use fill="#fff" xlink:href="#dkkkg"/></g><g><use fill="#fff" xlink:href="#dkkkh"/></g><g><use fill="#fff" xlink:href="#dkkki"/></g><g><use fill="#fff" xlink:href="#dkkkj"/></g><g><use fill="#fff" xlink:href="#dkkkk"/></g></g><g><g><g><use fill="#fff" xlink:href="#dkkkl"/></g><g><use fill="#fff" xlink:href="#dkkkm"/></g><g><use fill="#fff" xlink:href="#dkkkn"/></g><g><use fill="#fff" xlink:href="#dkkko"/></g><g><use fill="#fff" xlink:href="#dkkkp"/></g><g><use fill="#fff" xlink:href="#dkkkq"/></g><g><use fill="#fff" xlink:href="#dkkkr"/></g><g><use fill="#fff" xlink:href="#dkkks"/></g><g><use fill="#fff" xlink:href="#dkkkt"/></g><g><use fill="#fff" xlink:href="#dkkku"/></g><g><use fill="#fff" xlink:href="#dkkkv"/></g><g><use fill="#fff" xlink:href="#dkkkw"/></g><g><use fill="#fff" xlink:href="#dkkkx"/></g></g></g></g></g></g></g></svg>