<svg xmlns="http://www.w3.org/2000/svg" xmlns:xlink="http://www.w3.org/1999/xlink" width="130" height="43" viewBox="0 0 130 43"><defs><path id="ehaxb" d="M487 623a7 7 0 0 1 7-7h116a7 7 0 0 1 7 7v29a7 7 0 0 1-7 7H494a7 7 0 0 1-7-7z"/><path id="ehaxa" d="M513.01 633.7l-5.73-3.25-11.05-6.29c-.62-.34-1.23-.13-1.23.6v25.61c0 .54.44.78.97.47l11.31-6.43 5.73-3.25 5.5-3.14c.66-.36.6-.87.05-1.16-.55-.29-5.55-3.15-5.55-3.15z"/><path id="ehaxd" d="M495 623.57V651.3l14.2-13.87z"/><path id="ehaxg" d="M513.01 633.71l-5.73-3.26-12.28-6.98v.1l14.2 13.86z"/><path id="ehaxj" d="M495 651.3v.1l12.28-6.99 5.73-3.26-3.81-3.72z"/><path id="ehaxm" d="M513.01 633.71l-3.81 3.72 3.81 3.73 6.55-3.73z"/><path id="ehaxo" d="M586.75 648.08c-.55 0-1.05-.1-1.5-.3-.45-.2-.83-.5-1.13-.91h-.1c.07.48.1.94.1 1.37v3.41h-1.27v-12h1.03l.18 1.13h.06a2.94 2.94 0 0 1 2.63-1.28c1.1 0 1.97.38 2.57 1.13.6.75.9 1.8.9 3.15a4.9 4.9 0 0 1-.92 3.18 3.12 3.12 0 0 1-2.55 1.12zm-.19-7.51c-.85 0-1.47.23-1.85.7-.39.47-.58 1.21-.6 2.24v.27c0 1.17.2 2 .6 2.5.39.5 1.02.75 1.88.75.73 0 1.3-.29 1.7-.86.42-.58.62-1.38.62-2.4 0-1.03-.2-1.83-.61-2.38a2.03 2.03 0 0 0-1.74-.82z"/><path id="ehaxp" d="M593.17 647.94h-1.27v-11.76h1.27z"/><path id="ehaxq" d="M600.46 647.94l-.25-1.18h-.06a3.5 3.5 0 0 1-1.25 1.05c-.42.19-.94.28-1.56.28-.83 0-1.48-.21-1.95-.63-.47-.43-.71-1.03-.71-1.81 0-1.67 1.35-2.55 4.06-2.63l1.42-.05v-.51c0-.65-.14-1.13-.42-1.44-.29-.31-.74-.46-1.36-.46-.7 0-1.49.2-2.37.63l-.39-.96a6 6 0 0 1 2.84-.71c1 0 1.73.22 2.22.66.48.44.72 1.14.72 2.1v5.66h-.94zm-2.87-.89a2.6 2.6 0 0 0 1.86-.64c.45-.43.68-1.03.68-1.8v-.74l-1.27.05c-1 .03-1.74.19-2.18.46-.45.28-.67.7-.67 1.28 0 .46.14.8.42 1.04.27.24.66.35 1.16.35z"/><path id="ehaxr" d="M602.14 639.65h1.36l1.83 4.72c.4 1.08.66 1.86.75 2.34h.07c.06-.26.2-.7.41-1.32.21-.62.9-2.54 2.08-5.74H610l-3.6 9.43a4.7 4.7 0 0 1-1.25 1.99c-.48.39-1.06.58-1.76.58-.38 0-.77-.04-1.14-.13v-1c.28.06.6.09.94.09.87 0 1.49-.49 1.86-1.45l.47-1.18z"/><path id="ehaxs" d="M563.25 640.42zm1.24 2.34c0 1.28-.74 1.9-1.47 2.46-.23.23-.5.47-.5.85s.27.59.46.75l.63.48c.77.64 1.47 1.23 1.47 2.43 0 1.63-1.59 3.27-4.6 3.27-2.54 0-3.77-1.2-3.77-2.48 0-.62.31-1.5 1.35-2.11 1.08-.66 2.56-.74 3.35-.8-.25-.3-.53-.64-.53-1.17 0-.3.09-.47.18-.68l-.57.03c-1.85 0-2.9-1.37-2.9-2.72 0-.8.36-1.68 1.12-2.32 1-.81 2.19-.95 3.13-.95h3.61l-1.12.62h-1.08c.4.33 1.24 1.03 1.24 2.34zm-2.49 5.36c-.14-.02-.23-.02-.4-.02-.16 0-1.1.03-1.84.28-.39.13-1.5.55-1.5 1.78s1.2 2.11 3.08 2.11c1.68 0 2.57-.8 2.57-1.87 0-.88-.58-1.35-1.9-2.28zm.51-3.3c.4-.4.44-.95.44-1.26 0-1.25-.76-3.19-2.21-3.19-.46 0-.95.23-1.23.57-.3.37-.38.83-.38 1.29 0 1.16.68 3.08 2.19 3.08.44 0 .9-.2 1.19-.49z"/><path id="ehaxt" d="M552.22 647.83a4.1 4.1 0 0 1-4.27-4.08c0-2.26 1.87-4.2 4.53-4.2a4.07 4.07 0 0 1 4.18 4.08c0 2.04-1.59 4.2-4.44 4.2zm2.18-1.4a3.1 3.1 0 0 0 .53-1.92c0-1.52-.73-4.42-2.9-4.42-.58 0-1.16.22-1.58.58-.68.6-.8 1.37-.8 2.11 0 1.72.85 4.53 2.97 4.53.68 0 1.38-.32 1.78-.88z"/><path id="ehaxu" d="M542.73 647.83a4.1 4.1 0 0 1-4.27-4.08c0-2.26 1.87-4.2 4.53-4.2a4.07 4.07 0 0 1 4.18 4.08c0 2.04-1.59 4.2-4.44 4.2zm2.19-1.4a3.1 3.1 0 0 0 .52-1.92c0-1.52-.73-4.42-2.9-4.42-.58 0-1.16.22-1.58.58-.68.6-.8 1.37-.8 2.11 0 1.72.85 4.53 2.97 4.53.68 0 1.38-.32 1.79-.88z"/><path id="ehaxv" d="M537.13 647.57l-2.52.57c-1.02.16-1.93.3-2.9.3-4.85 0-6.7-3.53-6.7-6.3 0-3.37 2.62-6.5 7.1-6.5.96 0 1.87.14 2.7.36 1.32.37 1.93.82 2.32 1.08l-1.46 1.38-.62.14.44-.7c-.6-.57-1.69-1.63-3.76-1.63-2.78 0-4.87 2.08-4.87 5.13 0 3.26 2.39 6.34 6.22 6.34 1.13 0 1.7-.22 2.24-.43v-2.8l-2.66.14 1.4-.75h3.74l-.46.43c-.13.1-.14.14-.18.28-.02.16-.03.66-.03.84v2.12z"/><path id="ehaxw" d="M568.8 647.06c-.57-.05-.7-.15-.7-.83v-9.84l.01-.11c.07-.61.25-.72.8-1.03h-2.52l-1.32.63h1.34v10.73c0 .35-.07.4-.47.92h3.11l.65-.38-.9-.09z"/><path id="ehaxx" d="M575.97 647.23c-.2.1-.39.22-.58.3-.58.27-1.17.34-1.7.34-.55 0-1.43-.04-2.32-.68a4.45 4.45 0 0 1-1.78-3.64 3.94 3.94 0 0 1 5.8-3.5c.87.56 1.1 1.3 1.22 1.7l-4.1 1.64-1.35.1c.44 2.2 1.94 3.48 3.6 3.48.9 0 1.54-.31 2.13-.6zm-1.65-5.15c.33-.12.51-.22.51-.47 0-.69-.79-1.48-1.73-1.48-.7 0-2 .53-2 2.4 0 .3.03.6.04.92z"/><path id="ehaxy" d="M530.95 632.15h-1.5c0-.2-.13-.78-.42-1.72h-2.15c-.3.93-.44 1.5-.44 1.72h-1.4c0-.12.36-1.1 1.09-2.95a22.97 22.97 0 0 0 1.09-3.05h1.76c0 .18.33 1.18.98 3 .66 1.84 1 2.83 1 3zm-2.15-2.6a25.7 25.7 0 0 1-.8-2.58h-.07c0 .12-.28.98-.83 2.58z"/><path id="ehaxz" d="M536.96 632.16h-1.15c0-.13-.43-.8-1.28-2-.9-1.26-1.4-2.13-1.53-2.6h-.07c.07.67.11 1.28.11 1.83 0 .75.02 1.68.07 2.77h-1.15a64.78 64.78 0 0 0 0-6h1.38c0 .16.39.81 1.16 1.95.81 1.2 1.28 2.03 1.4 2.46h.07a17.2 17.2 0 0 1-.1-1.85c0-.83-.03-1.68-.07-2.56h1.16a67.11 67.11 0 0 0 0 6z"/><path id="ehaxA" d="M543.72 628.95c0 .87-.29 1.63-.85 2.29-.57.65-1.36.97-2.38.97-.46 0-1.1-.02-1.9-.05a72.88 72.88 0 0 0 0-6h.82a19.3 19.3 0 0 0 1.11-.03c1.12 0 1.93.28 2.44.83.5.55.76 1.22.76 1.99zm-1.27.2a2.2 2.2 0 0 0-.53-1.5c-.34-.4-.88-.6-1.6-.6l-.54.04c.03.62.05 1.26.05 1.93 0 .73.01 1.46.04 2.18.2.04.4.06.6.06.68 0 1.17-.2 1.5-.61.31-.41.48-.91.48-1.5z"/><path id="ehaxB" d="M549.94 632.16h-1.38a9 9 0 0 0-.83-2.02c-.19-.25-.5-.38-.93-.38h-.52c0 .8.02 1.6.05 2.4h-1.3a72.88 72.88 0 0 0 0-6h.8l.6-.02.81-.01c1.43 0 2.14.48 2.14 1.45 0 .76-.4 1.3-1.22 1.6v.07c.32.08.6.32.83.72.23.4.55 1.13.95 2.19zm-1.75-4.24c0-.61-.4-.92-1.19-.92-.3 0-.55.02-.77.06.03.48.05 1.1.05 1.87h.43c.99 0 1.48-.33 1.48-1.01z"/><path id="ehaxC" d="M556.62 629.05c0 .94-.29 1.72-.87 2.34-.59.62-1.31.93-2.17.93-.82 0-1.5-.28-2.06-.85a3 3 0 0 1-.83-2.17c0-.95.3-1.73.88-2.35.58-.62 1.3-.93 2.16-.93.82 0 1.51.28 2.06.85.56.57.83 1.3.83 2.18zm-1.28.13c0-.64-.17-1.16-.5-1.56-.33-.4-.74-.6-1.23-.6-.46 0-.84.2-1.16.6-.31.4-.47.91-.47 1.53 0 .64.16 1.16.5 1.56.33.4.74.6 1.23.6.45 0 .84-.2 1.15-.6.32-.41.48-.92.48-1.53z"/><path id="ehaxD" d="M559.26 632.15h-1.32a74.59 74.59 0 0 0 0-6h1.32a73.25 73.25 0 0 0 0 6z"/><path id="ehaxE" d="M566.02 628.95c0 .87-.29 1.63-.85 2.29-.57.65-1.36.97-2.38.97-.46 0-1.1-.02-1.9-.05a72.92 72.92 0 0 0 0-6h.82a19.3 19.3 0 0 0 1.11-.03c1.12 0 1.93.28 2.44.83.5.55.76 1.22.76 1.99zm-1.27.2a2.2 2.2 0 0 0-.53-1.5c-.34-.4-.88-.6-1.6-.6l-.54.04c.03.62.05 1.26.05 1.93 0 .73.01 1.46.04 2.18.2.04.4.06.6.06.68 0 1.17-.2 1.5-.61.31-.41.48-.91.48-1.5z"/><path id="ehaxF" d="M574.98 632.15h-1.5c0-.2-.13-.78-.42-1.72h-2.15c-.3.93-.44 1.5-.44 1.72h-1.4c0-.12.36-1.1 1.09-2.95a22.97 22.97 0 0 0 1.09-3.05H573c0 .18.33 1.18.98 3 .66 1.84 1 2.83 1 3zm-2.15-2.6c-.53-1.59-.8-2.45-.8-2.58h-.07c0 .12-.28.98-.83 2.58z"/><path id="ehaxG" d="M580.42 627.73c0 .73-.28 1.28-.83 1.63a3.71 3.71 0 0 1-2.34.51c0 .58.02 1.34.05 2.29h-1.31a70.32 70.32 0 0 0 0-6h.81c.12 0 .34 0 .66-.02l.85-.01c.6 0 1.09.13 1.5.4.4.26.6.66.6 1.2zm-1.2.25c0-.66-.45-.98-1.33-.98-.22 0-.45.02-.7.06.04.59.05 1.24.05 1.98h.27c1.14 0 1.7-.35 1.7-1.06z"/><path id="ehaxH" d="M586 627.73c0 .73-.27 1.28-.82 1.63a3.71 3.71 0 0 1-2.34.51c0 .58.02 1.34.05 2.29h-1.31a70.25 70.25 0 0 0 0-6h.81c.12 0 .34 0 .66-.02l.85-.01c.6 0 1.09.13 1.5.4.4.26.6.66.6 1.2zm-1.2.25c0-.66-.44-.98-1.32-.98-.22 0-.45.02-.7.06.04.59.05 1.24.05 1.98h.27c1.14 0 1.7-.35 1.7-1.06z"/><path id="ehaxI" d="M595.14 629.05c0 .94-.29 1.72-.87 2.34-.59.62-1.31.93-2.17.93-.82 0-1.5-.28-2.06-.85a3 3 0 0 1-.83-2.17c0-.95.3-1.73.88-2.35.58-.62 1.3-.93 2.16-.93.82 0 1.51.28 2.06.85a3 3 0 0 1 .83 2.18zm-1.28.13c0-.64-.17-1.16-.5-1.56-.33-.4-.74-.6-1.23-.6-.46 0-.84.2-1.16.6-.31.4-.47.91-.47 1.53 0 .64.16 1.16.5 1.56.33.4.74.6 1.23.6.45 0 .83-.2 1.15-.6.32-.41.48-.92.48-1.53z"/><path id="ehaxJ" d="M601.46 632.16h-1.15c0-.13-.43-.8-1.28-2-.9-1.26-1.4-2.13-1.53-2.6h-.08c.08.67.12 1.28.12 1.83 0 .75.02 1.68.07 2.77h-1.15a64.83 64.83 0 0 0 0-6h1.38c0 .16.39.81 1.16 1.95a11.4 11.4 0 0 1 1.4 2.46h.07a17.2 17.2 0 0 1-.1-1.85c0-.83-.03-1.68-.07-2.56h1.16a68.29 68.29 0 0 0 0 6z"/><linearGradient id="ehaxe" x1="502.1" x2="502.1" y1="623.57" y2="651.3" gradientUnits="userSpaceOnUse"><stop offset="0" stop-color="#257cb0"/><stop offset=".29" stop-color="#4a93b5"/><stop offset=".77" stop-color="#78bcbb"/><stop offset="1" stop-color="#89cfbd"/></linearGradient><linearGradient id="ehaxh" x1="495" x2="513.01" y1="630.45" y2="630.45" gradientUnits="userSpaceOnUse"><stop offset="0" stop-color="#52c1ad"/><stop offset="1" stop-color="#dee89a"/></linearGradient><linearGradient id="ehaxk" x1="504" x2="504" y1="637.43" y2="651.39" gradientUnits="userSpaceOnUse"><stop offset="0" stop-color="#ec413d"/><stop offset=".17" stop-color="#da4452"/><stop offset=".57" stop-color="#b0487a"/><stop offset=".86" stop-color="#954a92"/><stop offset="1" stop-color="#8a4a9d"/></linearGradient><linearGradient id="ehaxn" x1="514.38" x2="514.38" y1="633.71" y2="641.16" gradientUnits="userSpaceOnUse"><stop offset="0" stop-color="#f58879"/><stop offset=".12" stop-color="#f69079"/><stop offset=".71" stop-color="#fcb877"/><stop offset="1" stop-color="#fec874"/></linearGradient><clipPath id="ehaxc"><use xlink:href="#ehaxa"/></clipPath><clipPath id="ehaxf"><use xlink:href="#ehaxa"/></clipPath><clipPath id="ehaxi"><use xlink:href="#ehaxa"/></clipPath><clipPath id="ehaxl"><use xlink:href="#ehaxa"/></clipPath></defs><g><g transform="translate(-487 -616)"><g opacity=".1"><use fill="#fff" xlink:href="#ehaxb"/></g><g><g><g><g/><g clip-path="url(#ehaxc)"><use fill="url(#ehaxe)" xlink:href="#ehaxd"/></g></g><g><g/><g clip-path="url(#ehaxf)"><use fill="url(#ehaxh)" xlink:href="#ehaxg"/></g></g><g><g/><g clip-path="url(#ehaxi)"><use fill="url(#ehaxk)" xlink:href="#ehaxj"/></g></g><g><g/><g clip-path="url(#ehaxl)"><use fill="url(#ehaxn)" xlink:href="#ehaxm"/></g></g></g><g><g><use fill="#f9f9f9" xlink:href="#ehaxo"/></g><g><use fill="#f9f9f9" xlink:href="#ehaxp"/></g><g><use fill="#f9f9f9" xlink:href="#ehaxq"/></g><g><use fill="#f9f9f9" xlink:href="#ehaxr"/></g><g><use fill="#f9f9f9" xlink:href="#ehaxs"/></g><g><use fill="#f9f9f9" xlink:href="#ehaxt"/></g><g><use fill="#f9f9f9" xlink:href="#ehaxu"/></g><g><use fill="#f9f9f9" xlink:href="#ehaxv"/></g><g><use fill="#f9f9f9" xlink:href="#ehaxw"/></g><g><use fill="#f9f9f9" xlink:href="#ehaxx"/></g><g><use fill="#f9f9fa" xlink:href="#ehaxy"/></g><g><use fill="#f9f9fa" xlink:href="#ehaxz"/></g><g><use fill="#f9f9fa" xlink:href="#ehaxA"/></g><g><use fill="#f9f9fa" xlink:href="#ehaxB"/></g><g><use fill="#f9f9fa" xlink:href="#ehaxC"/></g><g><use fill="#f9f9fa" xlink:href="#ehaxD"/></g><g><use fill="#f9f9fa" xlink:href="#ehaxE"/></g><g><use fill="#f9f9fa" xlink:href="#ehaxF"/></g><g><use fill="#f9f9fa" xlink:href="#ehaxG"/></g><g><use fill="#f9f9fa" xlink:href="#ehaxH"/></g><g><use fill="#f9f9fa" xlink:href="#ehaxI"/></g><g><use fill="#f9f9fa" xlink:href="#ehaxJ"/></g></g></g></g></g></svg>