<svg xmlns="http://www.w3.org/2000/svg" xmlns:xlink="http://www.w3.org/1999/xlink" width="130" height="43" viewBox="0 0 130 43"><defs><path id="dutoa" d="M652.54 649.95l-10.47-1.5v-8.75h10.47zm0-11.06h-10.47v-8.29l10.47-1.5zm14.31 13.01l-13.5-1.95V639.7h13.5zm0-13h-13.5v-9.8l13.5-1.95z"/><path id="dutob" d="M684.16 633.89c-.46.24-1.5.48-2.65.48a4.33 4.33 0 0 1-3.21-1.2 4.85 4.85 0 0 1-1.15-3.35c0-2.64 1.72-4.67 4.6-4.67 1.03 0 1.72.24 2.18.36l-.23.96a3.89 3.89 0 0 0-1.84-.36c-2.07 0-3.45 1.31-3.45 3.59 0 2.27 1.27 3.59 3.33 3.59.7 0 1.27-.12 1.5-.24v-2.63h-1.72v-.96h2.75v4.43z"/><path id="dutoc" d="M688.52 633.53c.8 0 1.26-.11 1.72-.35l.23.83c-.34.24-1.03.36-2.06.36-1.84 0-2.99-1.31-2.99-3.23 0-1.91 1.03-3.47 2.87-3.47 1.95 0 2.53 1.8 2.53 3v.6h-4.37c0 1.55 1.04 2.26 2.07 2.26zm1.27-3.1c0-.73-.35-1.92-1.5-1.92s-1.6 1.08-1.72 1.91z"/><path id="dutod" d="M693.58 625.99v1.8h1.6v.83h-1.6v3.47c0 .84.23 1.2.8 1.2.35 0 .46 0 .7-.12v.84c-.24.12-.58.12-1.04.12-.58 0-.92-.12-1.15-.48-.35-.36-.46-.96-.46-1.68v-3.47h-.92v-.83h.92v-1.56z"/><path id="dutoe" d="M699.66 625.27c-.35 0-.69.36-.69.72s.34.72.69.72c.46 0 .69-.36.69-.72s-.35-.72-.7-.72zm-.58 8.98h1.15v-6.47h-1.15z"/><path id="dutof" d="M703.34 625.99v1.8h1.6v.83h-1.6v3.47c0 .84.23 1.2.8 1.2.35 0 .46 0 .7-.12v.84c-.24.12-.58.12-1.04.12-.58 0-.92-.12-1.15-.48-.35-.36-.46-.96-.46-1.68v-3.47h-.92v-.83h.92v-1.56z"/><path id="dutog" d="M714.37 631.02c0 2.4-1.61 3.47-3.1 3.47-1.61 0-2.99-1.31-2.99-3.35 0-2.15 1.38-3.47 2.99-3.47 1.95 0 3.1 1.32 3.1 3.35zm-4.83 0c0 1.44.8 2.52 1.84 2.52s1.84-1.08 1.84-2.52c0-1.08-.58-2.51-1.84-2.51-1.26 0-1.84 1.31-1.84 2.51z"/><path id="dutoh" d="M715.74 629.58v-1.79h1.03l.12 1.08c.34-.6 1.03-1.2 2.07-1.2.8 0 2.18.48 2.18 2.75v3.83h-1.15v-3.7c0-1.09-.34-1.92-1.38-1.92-.69 0-1.26.6-1.5 1.2 0 .11-.1.35-.1.6v3.82h-1.15v-4.67z"/><path id="dutoi" d="M680.13 653.64l-3.1-13.05h1.72l1.5 6.58c.34 1.68.69 3.23.92 4.55.22-1.32.57-2.87 1.03-4.55l1.6-6.58h1.73l1.5 6.58c.34 1.56.68 3.11.91 4.43.23-1.43.58-2.87 1.04-4.55l1.6-6.58h1.61l-3.56 13.05h-1.72l-1.6-6.83c-.35-1.67-.7-2.99-.81-4.3a51.46 51.46 0 0 1-.92 4.3l-1.73 6.83h-1.72z"/><path id="dutoj" d="M694.03 640.47c-.57 0-1.03.48-1.03 1.08 0 .6.46 1.07 1.03 1.07.7 0 1.04-.47 1.04-1.07 0-.6-.35-.96-1.04-1.08zm.8 13.17v-9.34h-1.6v9.34z"/><path id="dutok" d="M696.9 646.82c0-.95 0-1.8-.11-2.51h1.5l.1 1.56c.47-.84 1.5-1.8 3-1.8 1.26 0 3.1.72 3.1 3.95v5.63h-1.61v-5.4c0-1.55-.58-2.74-2.07-2.74-1.03 0-1.95.83-2.18 1.8-.12.23-.12.47-.12.83v5.62h-1.6v-6.94z"/><path id="dutol" d="M714.71 639.88v11.37c0 .84 0 1.8.12 2.4h-1.5l-.11-1.68c-.46 1.08-1.61 1.8-2.99 1.8-2.18 0-3.79-1.92-3.79-4.8 0-3.1 1.84-5.02 4.02-5.02 1.38 0 2.3.72 2.64 1.44v-5.63h1.61v.12zM713 647.3a2.37 2.37 0 0 0-2.3-1.91c-1.72 0-2.64 1.55-2.64 3.59 0 1.91.92 3.47 2.64 3.47 1.03 0 2.07-.72 2.41-2.04 0-.24.12-.48.12-.72v-1.67h-.12c0-.24 0-.48-.11-.72z"/><path id="dutom" d="M724.93 648.86c0 3.47-2.3 5.02-4.48 5.02-2.41 0-4.25-1.91-4.25-4.78 0-3.11 1.95-5.03 4.48-5.03 2.53 0 4.25 1.92 4.25 4.79zm-7 .12c0 2.03 1.14 3.59 2.75 3.59 1.5 0 2.76-1.56 2.76-3.6 0-1.55-.8-3.58-2.65-3.58-2.06-.12-2.87 1.8-2.87 3.59z"/><path id="duton" d="M727 644.19l1.15 4.79c.23 1.08.46 2.03.69 2.99.23-.96.46-1.91.8-3l1.5-4.78h1.37l1.38 4.67c.34 1.08.57 2.15.8 3.11.12-.96.35-1.92.7-3l1.26-4.66h1.6l-2.87 9.34h-1.49l-1.38-4.43a24.4 24.4 0 0 1-.8-3.12 31 31 0 0 1-.8 3.12l-1.5 4.43h-1.38l-2.64-9.34h1.6v-.12z"/><path id="dutoo" d="M739.52 651.85c.46.36 1.38.72 2.18.72 1.15 0 1.73-.6 1.73-1.44s-.46-1.31-1.61-1.67c-1.61-.6-2.41-1.56-2.41-2.64 0-1.55 1.14-2.75 3.1-2.75.92 0 1.72.24 2.18.6l-.46 1.2a3.37 3.37 0 0 0-1.84-.6c-.92 0-1.5.6-1.5 1.31 0 .72.58 1.08 1.73 1.56 1.5.6 2.3 1.44 2.3 2.87 0 1.68-1.27 2.76-3.33 2.76a5.3 5.3 0 0 1-2.53-.6z"/><path id="dutop" d="M629 624a7 7 0 0 1 7-7h116a7 7 0 0 1 7 7v29a7 7 0 0 1-7 7H636a7 7 0 0 1-7-7z"/></defs><g><g transform="translate(-629 -617)"><g><g><use fill="#fff" xlink:href="#dutoa"/></g></g><g><g><use fill="#fff" xlink:href="#dutob"/></g><g><use fill="#fff" xlink:href="#dutoc"/></g><g><use fill="#fff" xlink:href="#dutod"/></g><g><use fill="#fff" xlink:href="#dutoe"/></g><g><use fill="#fff" xlink:href="#dutof"/></g><g><use fill="#fff" xlink:href="#dutog"/></g><g><use fill="#fff" xlink:href="#dutoh"/></g><g><use fill="#fff" xlink:href="#dutoi"/></g><g><use fill="#fff" xlink:href="#dutoj"/></g><g><use fill="#fff" xlink:href="#dutok"/></g><g><use fill="#fff" xlink:href="#dutol"/></g><g><use fill="#fff" xlink:href="#dutom"/></g><g><use fill="#fff" xlink:href="#duton"/></g><g><use fill="#fff" xlink:href="#dutoo"/></g></g><g opacity=".1"><use fill="#fff" xlink:href="#dutop"/></g></g></g></svg>